<?xml version="1.0" encoding="utf-8"?>
<!-- Generator: Adobe Illustrator 16.0.0, SVG Export Plug-In . SVG Version: 6.00 Build 0)  -->
<!DOCTYPE svg PUBLIC "-//W3C//DTD SVG 1.1//EN" "http://www.w3.org/Graphics/SVG/1.1/DTD/svg11.dtd">
<svg version="1.1" id="Layer_1" xmlns="http://www.w3.org/2000/svg" xmlns:xlink="http://www.w3.org/1999/xlink" x="0px" y="0px"
	 width="128px" height="128px" viewBox="0 0 128 128" enable-background="new 0 0 128 128" xml:space="preserve">
<g>
	<g>
		<g>
			<g>
				<path fill="#282D33" d="M57.809,122.615l-6.639-6.727l2.847-2.811l3.792,3.843l45.462-46.055
					c6.942-7.031,9.813-17.035,7.679-26.759l3.907-0.857c2.427,11.053-0.841,22.427-8.739,30.428L57.809,122.615z"/>
			</g>
			<g>
				<path fill="#282D33" d="M18.852,83.155l-9.358-9.478c-12.658-12.826-12.658-33.697,0-46.527l0.46-0.462
					c6.136-6.215,14.305-9.643,22.997-9.643c8.692,0,16.862,3.428,23.005,9.65l1.854,1.878l1.852-1.878
					c8.004-8.105,19.366-11.393,30.406-8.791L89.149,21.8c-9.665-2.277-19.627,0.603-26.641,7.707l-4.7,4.763l-4.701-4.764
					c-5.385-5.455-12.544-8.459-20.157-8.459c-7.614,0-14.772,3.005-20.157,8.459l-0.46,0.462
					C1.212,41.24,1.211,59.591,12.34,70.866l9.357,9.478L18.852,83.155z"/>
			</g>
		</g>
		<g>
			<g>
				<g>
					<path fill="#282D33" d="M18.251,63.912c-7.805-7.91-7.804-20.782,0.002-28.693l0.427-0.43
						c3.806-3.854,8.859-5.979,14.224-5.979v4.001c-4.287,0-8.329,1.702-11.382,4.793l-0.426,0.43
						c-6.272,6.356-6.273,16.708,0.003,23.068L18.251,63.912z"/>
				</g>
			</g>
		</g>
	</g>
	<g>
		<g>
			<polygon fill="#282D33" points="14.203,118.792 21.594,87.069 23.535,85.102 26.382,87.913 25.235,89.075 19.465,113.84 
				45.372,109.435 46.464,108.327 49.312,111.138 47.313,113.162 			"/>
		</g>
		<g>
			<path fill="#282D33" d="M93.07,19.179l21.293,21.568l-66.258,67.108L26.811,86.288L93.07,19.179 M93.07,13.575L21.278,86.288
				l26.827,27.172l71.791-72.713L93.07,13.575L93.07,13.575z"/>
		</g>
		<g>
			<g>
				
					<rect x="73.405" y="18.624" transform="matrix(0.7115 0.7026 -0.7026 0.7115 68.5989 -33.7504)" fill="#282D33" width="4.001" height="96.1"/>
			</g>
			<g>
				
					<rect x="65.844" y="10.964" transform="matrix(0.7117 0.7025 -0.7025 0.7117 61.0204 -30.646)" fill="#282D33" width="4.001" height="96.102"/>
			</g>
		</g>
		<g>
			<path fill="#282D33" d="M121.632,37.715l-2.848-2.812l5.156-5.223c-0.116-0.302-0.396-0.797-0.914-1.322l-17.754-17.976
				c-0.5-0.508-0.972-0.791-1.269-0.918l-5.131,5.199l-2.849-2.811l5.511-5.583c0.563-0.57,1.351-0.886,2.219-0.886
				c1.406,0,2.999,0.798,4.368,2.189l17.752,17.975c2.253,2.286,2.783,5.056,1.264,6.588L121.632,37.715z"/>
		</g>
		<g>
			
				<rect x="16.852" y="108.852" transform="matrix(0.7026 0.7116 -0.7116 0.7026 85.3321 17.5492)" fill="#282D33" width="9.642" height="4.001"/>
		</g>
	</g>
</g>
</svg>
