<?xml version="1.0" encoding="utf-8"?>
<!-- Generator: Adobe Illustrator 22.0.1, SVG Export Plug-In . SVG Version: 6.00 Build 0)  -->
<svg version="1.1" id="Layer_3" xmlns="http://www.w3.org/2000/svg" xmlns:xlink="http://www.w3.org/1999/xlink" x="0px" y="0px"
	 viewBox="0 0 64 64" style="enable-background:new 0 0 64 64;" xml:space="preserve">
<style type="text/css">
	.st0{fill:#FAF5F5;}
	.st1{fill:#63312D;}
	.st2{fill:#F9A287;}
	.st3{fill:#FCB7A4;}
	.st4{fill:#DB785A;}
	.st5{fill:#E0E0E0;}
	.st6{fill:#84DBFF;}
	.st7{fill:#EFC36A;}
	.st8{fill:#F9DD9D;}
	.st9{fill:#EEC26A;}
	.st10{fill:#A9EBFF;}
	.st11{fill:#52BADB;}
	.st12{fill:#FFFFFF;}
	.st13{fill:#F0EEEE;}
	.st14{fill:#BDBDBD;}
	.st15{fill:#E3DFDF;}
	.st16{fill:#FFE8BB;}
	.st17{fill:#FFF2D2;}
	.st18{fill:#D8C18F;}
	.st19{fill:#EAD194;}
	.st20{fill:#BFA064;}
	.st21{fill:#CCCCCC;}
	.st22{fill:#C5F1FF;}
	.st23{fill:#D3A553;}
	.st24{fill:#67C7E5;}
</style>
<g>
	<polygon class="st15" points="56.715,14.233 52.493,14.233 56.596,21.34 52.493,28.447 56.715,28.447 60.818,21.34 	"/>
	<polygon class="st2" points="15.491,14.233 7.285,14.233 3.182,21.34 7.285,28.447 15.491,28.447 19.594,21.34 	"/>
	<polygon class="st3" points="8.28,15.83 16.413,15.83 15.491,14.233 9.202,14.233 7.285,14.233 3.182,21.34 7.285,28.447 
		9.202,28.447 5.099,21.34 	"/>
	<path class="st1" d="M15.491,28.947H7.285c-0.179,0-0.344-0.095-0.433-0.25L2.749,21.59c-0.089-0.155-0.089-0.345,0-0.5
		l4.103-7.106c0.089-0.155,0.254-0.25,0.433-0.25h8.206c0.179,0,0.344,0.095,0.433,0.25l4.103,7.106c0.089,0.155,0.089,0.345,0,0.5
		l-4.103,7.107C15.835,28.852,15.67,28.947,15.491,28.947z M7.574,27.947h7.629l3.814-6.607l-3.814-6.606H7.574L3.76,21.34
		L7.574,27.947z"/>
	<polygon class="st0" points="15.561,35.553 7.355,35.553 3.252,42.66 7.355,49.766 15.561,49.766 19.664,42.66 	"/>
	<path class="st1" d="M15.561,50.266H7.355c-0.179,0-0.344-0.095-0.433-0.25L2.819,42.91c-0.089-0.155-0.089-0.345,0-0.5
		l4.103-7.106c0.089-0.155,0.254-0.25,0.433-0.25h8.206c0.179,0,0.344,0.095,0.433,0.25l4.103,7.106c0.089,0.155,0.089,0.345,0,0.5
		l-4.103,7.106C15.905,50.171,15.74,50.266,15.561,50.266z M7.644,49.266h7.629l3.814-6.606l-3.814-6.606H7.644L3.829,42.66
		L7.644,49.266z"/>
	<polygon class="st4" points="19.713,14.233 15.491,14.233 19.594,21.34 15.491,28.447 19.713,28.447 23.816,21.34 	"/>
	<path class="st1" d="M19.713,28.947h-4.222c-0.179,0-0.344-0.095-0.433-0.25s-0.089-0.345,0-0.5l3.959-6.857l-3.959-6.856
		c-0.089-0.155-0.089-0.345,0-0.5s0.254-0.25,0.433-0.25h4.222c0.179,0,0.344,0.095,0.433,0.25l4.103,7.106
		c0.089,0.155,0.089,0.345,0,0.5l-4.103,7.107C20.057,28.852,19.892,28.947,19.713,28.947z M16.358,27.947h3.067l3.814-6.607
		l-3.814-6.606h-3.067l3.67,6.356c0.089,0.155,0.089,0.345,0,0.5L16.358,27.947z"/>
	<polygon class="st6" points="27.875,28.447 19.669,28.447 15.566,35.553 19.669,42.66 27.875,42.66 31.978,35.553 	"/>
	<polygon class="st10" points="20.837,29.996 28.77,29.996 27.875,28.447 21.732,28.447 19.669,28.447 15.566,35.553 19.669,42.66 
		21.732,42.66 17.629,35.553 	"/>
	<polygon class="st6" points="27.875,42.66 19.669,42.66 15.566,49.766 19.669,56.873 27.875,56.873 31.978,49.766 	"/>
	<polygon class="st10" points="20.792,44.288 28.815,44.288 27.875,42.66 21.732,42.66 19.669,42.66 15.566,49.766 19.669,56.873 
		21.732,56.873 17.629,49.766 	"/>
	<path class="st1" d="M27.875,43.16h-8.206c-0.179,0-0.344-0.095-0.433-0.25l-4.103-7.106c-0.089-0.155-0.089-0.345,0-0.5
		l4.103-7.106c0.089-0.155,0.254-0.25,0.433-0.25h8.206c0.179,0,0.344,0.095,0.433,0.25l4.103,7.106c0.089,0.155,0.089,0.345,0,0.5
		l-4.103,7.106C28.219,43.064,28.054,43.16,27.875,43.16z M19.958,42.16h7.629l3.814-6.606l-3.814-6.606h-7.629l-3.814,6.606
		L19.958,42.16z"/>
	<polygon class="st11" points="32.097,28.447 27.875,28.447 31.978,35.553 27.875,42.66 32.097,42.66 36.2,35.553 	"/>
	<polygon class="st11" points="32.097,42.66 27.875,42.66 31.978,49.766 27.875,56.873 32.097,56.873 36.2,49.766 	"/>
	<path class="st1" d="M32.097,43.16h-4.222c-0.179,0-0.344-0.095-0.433-0.25s-0.089-0.345,0-0.5l3.959-6.856l-3.959-6.856
		c-0.089-0.155-0.089-0.345,0-0.5s0.254-0.25,0.433-0.25h4.222c0.179,0,0.344,0.095,0.433,0.25l4.103,7.106
		c0.089,0.155,0.089,0.345,0,0.5L32.53,42.91C32.441,43.064,32.276,43.16,32.097,43.16z M28.741,42.16h3.067l3.814-6.606
		l-3.814-6.606h-3.067l3.67,6.356c0.089,0.155,0.089,0.345,0,0.5L28.741,42.16z"/>
	<path class="st1" d="M27.875,57.373h-8.206c-0.179,0-0.344-0.095-0.433-0.25l-4.103-7.107c-0.089-0.155-0.089-0.345,0-0.5
		l4.103-7.106c0.089-0.155,0.254-0.25,0.433-0.25h8.206c0.179,0,0.344,0.095,0.433,0.25l4.103,7.106c0.089,0.155,0.089,0.345,0,0.5
		l-4.103,7.107C28.219,57.278,28.054,57.373,27.875,57.373z M19.958,56.373h7.629l3.814-6.607l-3.814-6.606h-7.629l-3.814,6.606
		L19.958,56.373z"/>
	<path class="st1" d="M32.097,57.373h-4.222c-0.179,0-0.344-0.095-0.433-0.25s-0.089-0.345,0-0.5l3.959-6.857l-3.959-6.856
		c-0.089-0.155-0.089-0.345,0-0.5s0.254-0.25,0.433-0.25h4.222c0.179,0,0.344,0.095,0.433,0.25l4.103,7.106
		c0.089,0.155,0.089,0.345,0,0.5l-4.103,7.107C32.441,57.278,32.276,57.373,32.097,57.373z M28.741,56.373h3.067l3.814-6.607
		l-3.814-6.606h-3.067l3.67,6.356c0.089,0.155,0.089,0.345,0,0.5L28.741,56.373z"/>
	<polygon class="st2" points="40.184,21.34 31.978,21.34 27.875,28.447 31.978,35.553 40.184,35.553 44.287,28.447 	"/>
	<polygon class="st3" points="33.168,22.871 41.068,22.871 40.184,21.34 34.052,21.34 31.978,21.34 27.875,28.447 31.978,35.553 
		34.052,35.553 29.949,28.447 	"/>
	<path class="st1" d="M40.184,36.053h-8.206c-0.179,0-0.344-0.095-0.433-0.25l-4.103-7.106c-0.089-0.155-0.089-0.345,0-0.5
		l4.103-7.107c0.089-0.155,0.254-0.25,0.433-0.25h8.206c0.179,0,0.344,0.095,0.433,0.25l4.103,7.107c0.089,0.155,0.089,0.345,0,0.5
		l-4.103,7.106C40.528,35.958,40.363,36.053,40.184,36.053z M32.266,35.053h7.629l3.814-6.606l-3.814-6.607h-7.629l-3.814,6.607
		L32.266,35.053z"/>
	<polygon class="st4" points="44.406,21.34 40.184,21.34 44.287,28.447 40.184,35.553 44.406,35.553 48.509,28.447 	"/>
	<path class="st1" d="M44.406,36.053h-4.222c-0.179,0-0.344-0.095-0.433-0.25s-0.089-0.345,0-0.5l3.959-6.856l-3.959-6.857
		c-0.089-0.155-0.089-0.345,0-0.5s0.254-0.25,0.433-0.25h4.222c0.179,0,0.344,0.095,0.433,0.25l4.103,7.107
		c0.089,0.155,0.089,0.345,0,0.5l-4.103,7.106C44.75,35.958,44.585,36.053,44.406,36.053z M41.05,35.053h3.067l3.814-6.606
		l-3.814-6.607H41.05l3.67,6.357c0.089,0.155,0.089,0.345,0,0.5L41.05,35.053z"/>
	<polygon class="st0" points="40.184,7.127 31.978,7.127 27.875,14.233 31.978,21.34 40.184,21.34 44.287,14.233 	"/>
	<path class="st1" d="M40.184,21.84h-8.206c-0.179,0-0.344-0.095-0.433-0.25l-4.103-7.106c-0.089-0.155-0.089-0.345,0-0.5
		l4.103-7.106c0.089-0.155,0.254-0.25,0.433-0.25h8.206c0.179,0,0.344,0.095,0.433,0.25l4.103,7.106c0.089,0.155,0.089,0.345,0,0.5
		l-4.103,7.106C40.528,21.745,40.363,21.84,40.184,21.84z M32.266,20.84h7.629l3.814-6.606l-3.814-6.606h-7.629l-3.814,6.606
		L32.266,20.84z"/>
	<polygon class="st15" points="44.406,7.127 40.184,7.127 44.287,14.233 40.184,21.34 44.406,21.34 48.509,14.233 	"/>
	<path class="st1" d="M44.406,21.84h-4.222c-0.179,0-0.344-0.095-0.433-0.25s-0.089-0.345,0-0.5l3.959-6.856l-3.959-6.856
		c-0.089-0.155-0.089-0.345,0-0.5s0.254-0.25,0.433-0.25h4.222c0.179,0,0.344,0.095,0.433,0.25l4.103,7.106
		c0.089,0.155,0.089,0.345,0,0.5l-4.103,7.106C44.75,21.745,44.585,21.84,44.406,21.84z M41.05,20.84h3.067l3.814-6.606
		l-3.814-6.606H41.05l3.67,6.356c0.089,0.155,0.089,0.345,0,0.5L41.05,20.84z"/>
	<polygon class="st0" points="52.493,14.233 44.287,14.233 40.184,21.34 44.287,28.447 52.493,28.447 56.596,21.34 	"/>
	<path class="st1" d="M52.493,28.947h-8.206c-0.179,0-0.344-0.095-0.433-0.25l-4.103-7.107c-0.089-0.155-0.089-0.345,0-0.5
		l4.103-7.106c0.089-0.155,0.254-0.25,0.433-0.25h8.206c0.179,0,0.344,0.095,0.433,0.25l4.103,7.106c0.089,0.155,0.089,0.345,0,0.5
		l-4.103,7.107C52.837,28.852,52.672,28.947,52.493,28.947z M44.575,27.947h7.629l3.814-6.607l-3.814-6.606h-7.629l-3.814,6.606
		L44.575,27.947z"/>
	<path class="st1" d="M56.715,28.947h-4.222c-0.179,0-0.344-0.095-0.433-0.25s-0.089-0.345,0-0.5l3.959-6.857l-3.959-6.856
		c-0.089-0.155-0.089-0.345,0-0.5s0.254-0.25,0.433-0.25h4.222c0.179,0,0.344,0.095,0.433,0.25l4.103,7.106
		c0.089,0.155,0.089,0.345,0,0.5l-4.103,7.107C57.058,28.852,56.893,28.947,56.715,28.947z M53.359,27.947h3.067l3.814-6.607
		l-3.814-6.606h-3.067l3.67,6.356c0.089,0.155,0.089,0.345,0,0.5L53.359,27.947z"/>
</g>
</svg>
